<svg xmlns="http://www.w3.org/2000/svg" version="1.1" xmlns:xlink="http://www.w3.org/1999/xlink" width="512" height="512" x="0" y="0" viewBox="0 0 682.667 682.667" style="enable-background:new 0 0 512 512" xml:space="preserve" class=""><g><defs><clipPath id="a" clipPathUnits="userSpaceOnUse"><path d="M0 512h512V0H0Z" fill="#000000" opacity="1" data-original="#000000"></path></clipPath></defs><g clip-path="url(#a)" transform="matrix(1.33333 0 0 -1.33333 0 682.667)"><path d="M0 0s138.47 85.474 138.47 190.911S0 381.821 0 381.821s-138.471-85.473-138.471-190.91c0-29.24 10.65-56.944 26.041-81.716" style="stroke-width:20;stroke-linecap:round;stroke-linejoin:round;stroke-miterlimit:10;stroke-dasharray:none;stroke-opacity:1" transform="translate(294.191 120.179)" fill="none" stroke="#0c3818" stroke-width="20" stroke-linecap="round" stroke-linejoin="round" stroke-miterlimit="10" stroke-dasharray="none" stroke-opacity="" data-original="#020288" opacity="1"></path><path d="M0 0c59.553-59.55 179.667-35.989 179.667-35.989S203.229 84.12 143.676 143.67C84.124 203.22-35.99 179.659-35.99 179.659S-59.552 59.55 0 0" style="fill-opacity:1;fill-rule:nonzero;stroke:none" transform="translate(109.927 73.204)" fill="#75e545" data-original="#a4fcc4" class="" opacity="1"></path><path d="M0 0c-35.662-35.66-21.553-107.584-21.553-107.584s71.928-14.109 107.589 21.551c35.661 35.659 21.552 107.584 21.552 107.584S35.661 35.66 0 0Z" style="stroke-width:20;stroke-linecap:round;stroke-linejoin:round;stroke-miterlimit:10;stroke-dasharray:none;stroke-opacity:1" transform="translate(318.497 136.568)" fill="none" stroke="#0c3818" stroke-width="20" stroke-linecap="round" stroke-linejoin="round" stroke-miterlimit="10" stroke-dasharray="none" stroke-opacity="" data-original="#020288" opacity="1"></path><path d="M0 0v-355.931" style="stroke-width:20;stroke-linecap:round;stroke-linejoin:round;stroke-miterlimit:10;stroke-dasharray:none;stroke-opacity:1" transform="translate(294.191 365.931)" fill="none" stroke="#0c3818" stroke-width="20" stroke-linecap="round" stroke-linejoin="round" stroke-miterlimit="10" stroke-dasharray="none" stroke-opacity="" data-original="#020288" opacity="1"></path><path d="m0 0-53.324 53.321" style="stroke-width:20;stroke-linecap:round;stroke-linejoin:round;stroke-miterlimit:10;stroke-dasharray:none;stroke-opacity:1" transform="translate(294.191 232.973)" fill="none" stroke="#0c3818" stroke-width="20" stroke-linecap="round" stroke-linejoin="round" stroke-miterlimit="10" stroke-dasharray="none" stroke-opacity="" data-original="#020288" opacity="1"></path><path d="m0 0 53.323 53.322" style="stroke-width:20;stroke-linecap:round;stroke-linejoin:round;stroke-miterlimit:10;stroke-dasharray:none;stroke-opacity:1" transform="translate(294.191 289.097)" fill="none" stroke="#0c3818" stroke-width="20" stroke-linecap="round" stroke-linejoin="round" stroke-miterlimit="10" stroke-dasharray="none" stroke-opacity="" data-original="#020288" opacity="1"></path><path d="m0 0-129.288 130.041" style="stroke-width:20;stroke-linecap:round;stroke-linejoin:round;stroke-miterlimit:10;stroke-dasharray:none;stroke-opacity:1" transform="translate(293.434 32.617)" fill="none" stroke="#0c3818" stroke-width="20" stroke-linecap="round" stroke-linejoin="round" stroke-miterlimit="10" stroke-dasharray="none" stroke-opacity="" data-original="#020288" opacity="1"></path><path d="M0 0v54.03" style="stroke-width:20;stroke-linecap:round;stroke-linejoin:round;stroke-miterlimit:10;stroke-dasharray:none;stroke-opacity:1" transform="translate(215.72 111.94)" fill="none" stroke="#0c3818" stroke-width="20" stroke-linecap="round" stroke-linejoin="round" stroke-miterlimit="10" stroke-dasharray="none" stroke-opacity="" data-original="#020288" opacity="1"></path><path d="m0 0 64.57 64.568" style="stroke-width:20;stroke-linecap:round;stroke-linejoin:round;stroke-miterlimit:10;stroke-dasharray:none;stroke-opacity:1" transform="translate(296.944 28.984)" fill="none" stroke="#0c3818" stroke-width="20" stroke-linecap="round" stroke-linejoin="round" stroke-miterlimit="10" stroke-dasharray="none" stroke-opacity="" data-original="#020288" opacity="1"></path></g></g></svg>