<svg width="600" height="600" viewBox="0 0 600 600" fill="none" xmlns="http://www.w3.org/2000/svg">
<path d="M318.107 144.574V373.136" stroke="black" stroke-width="20" stroke-miterlimit="10" stroke-linecap="round" stroke-linejoin="round"/>
<path d="M318.107 532.491C379.849 532.491 429.9 482.282 429.9 420.345C429.9 358.409 379.849 308.199 318.107 308.199C256.365 308.199 206.313 358.409 206.313 420.345C206.313 482.282 256.365 532.491 318.107 532.491Z" fill="#89E14D"/>
<path d="M364.1 258.826V57.8566C364.1 32.3754 343.509 11.7188 318.107 11.7188C292.707 11.7188 272.114 32.3754 272.114 57.8566V258.827C201.44 279.041 149.849 344.673 150.709 422.256C151.719 513.407 226.034 587.636 316.901 588.278C409.912 588.935 485.516 513.498 485.516 420.346C485.515 343.597 434.194 278.873 364.1 258.826Z" stroke="black" stroke-width="20" stroke-miterlimit="10" stroke-linecap="round" stroke-linejoin="round"/>
<path d="M176.401 82.6562V206.488" stroke="black" stroke-width="20" stroke-miterlimit="10" stroke-linecap="round" stroke-linejoin="round"/>
<path d="M194.676 98.7344L176.401 117.009L158.126 98.7344" stroke="black" stroke-width="20" stroke-miterlimit="10" stroke-linecap="round" stroke-linejoin="round"/>
<path d="M158.126 190.412L176.401 172.137L194.676 190.412" stroke="black" stroke-width="20" stroke-miterlimit="10" stroke-linecap="round" stroke-linejoin="round"/>
<path d="M238.317 144.574H114.485" stroke="black" stroke-width="20" stroke-miterlimit="10" stroke-linecap="round" stroke-linejoin="round"/>
<path d="M222.239 162.846L203.964 144.571L222.239 126.297" stroke="black" stroke-width="20" stroke-miterlimit="10" stroke-linecap="round" stroke-linejoin="round"/>
<path d="M130.562 126.297L148.838 144.571L130.562 162.846" stroke="black" stroke-width="20" stroke-miterlimit="10" stroke-linecap="round" stroke-linejoin="round"/>
<path d="M407.543 214.289H444.645" stroke="black" stroke-width="20" stroke-miterlimit="10" stroke-linecap="round" stroke-linejoin="round"/>
<path d="M407.543 167.812H426.094" stroke="black" stroke-width="20" stroke-miterlimit="10" stroke-linecap="round" stroke-linejoin="round"/>
<path d="M407.543 121.336H444.645" stroke="black" stroke-width="20" stroke-miterlimit="10" stroke-linecap="round" stroke-linejoin="round"/>
<path d="M407.543 74.8594H426.094" stroke="black" stroke-width="20" stroke-miterlimit="10" stroke-linecap="round" stroke-linejoin="round"/>
</svg>
