<svg width="22" height="22" viewBox="0 0 22 22" fill="none" xmlns="http://www.w3.org/2000/svg">
<path d="M21.9308 9.76587C21.8947 9.44243 21.8448 9.12259 21.7811 8.80817H18.2551L21.0182 6.4515C20.7849 5.93808 20.5126 5.44631 20.206 4.97858L15.6868 8.80817H13.7768L19.4713 3.98301C19.2976 3.7738 19.1166 3.57119 18.9284 3.37521L13.2514 8.18774V0.230974C12.97 0.172659 12.6851 0.124563 12.3965 0.0878906V9.76587H21.9314H21.9308Z" fill="white"/>
<path d="M12.3951 21.9128C12.6837 21.8761 12.9687 21.828 13.25 21.7697V14.2308L18.6583 18.8948C19.0858 18.4806 19.4796 18.0315 19.8349 17.553L15.255 13.5959H17.1662L20.5274 16.4997C20.6501 16.2875 20.7655 16.071 20.8743 15.8504L18.2543 13.5959H21.6902C21.7659 13.2821 21.829 12.9635 21.8771 12.6406H12.3945V21.9122L12.3951 21.9128Z" fill="white"/>
<path d="M9.83171 0.0625C9.54254 0.0931608 9.25697 0.135244 8.97501 0.187548L8.97681 8.18881L3.18313 3.26204C2.8128 3.63598 2.46952 4.03638 2.1557 4.45961L7.27123 8.80803H5.35945L1.47154 5.50088C1.31884 5.7654 1.17696 6.03654 1.0459 6.31429L3.97069 8.80863H0.218056C0.15433 9.12306 0.105032 9.44289 0.0683594 9.76633H9.83051V0.0625H9.83171Z" fill="white"/>
<path d="M8.97604 21.8136C9.2574 21.8659 9.54237 21.908 9.83094 21.9381V12.6406H0.121094C0.169189 12.9641 0.232314 13.2827 0.308064 13.5959H3.97052L1.20023 16.0031C1.4888 16.567 1.82487 17.1027 2.20242 17.6047L6.837 13.5953H8.74939L3.00982 18.56C3.15411 18.7127 3.3032 18.8606 3.4559 19.0048L8.97544 14.2296V21.8124L8.97604 21.8136Z" fill="white"/>
<path d="M15.686 8.80758L20.2051 4.978C19.9785 4.63231 19.7332 4.29985 19.4699 3.98242L13.7754 8.80758H15.6854H15.686Z" fill="#BD0034"/>
<path d="M15.2559 13.5957L19.8357 17.5527C20.0858 17.2161 20.3173 16.8644 20.5283 16.5001L17.167 13.5963H15.2559V13.5957Z" fill="#BD0034"/>
<path d="M7.27175 8.8074L2.15621 4.45898C1.90972 4.79204 1.68067 5.13953 1.47266 5.50025L5.36056 8.8074H7.27235H7.27175Z" fill="#BD0034"/>
<path d="M6.83771 13.5957L2.20312 17.605C2.45442 17.9387 2.72376 18.2579 3.01053 18.5609L8.7501 13.5963H6.83771V13.5957Z" fill="#BD0034"/>
<path d="M18.9271 3.3747C17.4217 1.8098 15.457 0.689178 13.25 0.230469V8.18724L18.9271 3.3747Z" fill="#1A237B"/>
<path d="M8.97487 0.1875C6.73062 0.605328 4.72565 1.70431 3.18359 3.26199L8.97728 8.18876L8.97547 0.1875H8.97487Z" fill="#1A237B"/>
<path d="M21.7799 8.80784C21.6134 7.98541 21.3555 7.19605 21.017 6.45117L18.2539 8.80784H21.7799Z" fill="#1A237B"/>
<path d="M20.8733 15.8502C21.2232 15.1384 21.4991 14.3839 21.6897 13.5957H18.2539L20.8739 15.8502H20.8733Z" fill="#1A237B"/>
<path d="M8.97657 14.2305L3.45703 19.0057C4.96001 20.4227 6.86218 21.4201 8.97657 21.8133V14.2305Z" fill="#1A237B"/>
<path d="M13.25 21.7688C15.3283 21.3366 17.1908 20.3181 18.6583 18.8945L13.25 14.2305V21.7694V21.7688Z" fill="#1A237B"/>
<path d="M0.308594 13.5957C0.512999 14.4404 0.814196 15.2472 1.20076 16.0029L3.97105 13.5957H0.308594Z" fill="#1A237B"/>
<path d="M1.04599 6.31445C0.675656 7.09961 0.3955 7.93526 0.21875 8.8088H3.97139L1.04659 6.31445H1.04599Z" fill="#1A237B"/>
<path d="M9.83128 21.9381C10.2154 21.9784 10.605 22 10.9994 22C11.4719 22 11.9379 21.9699 12.3948 21.9122V12.6407H21.8774C21.9573 12.1056 21.9994 11.5579 21.9994 11.0006C21.9994 10.5834 21.9754 10.1716 21.9303 9.76635H12.3954V0.0877739C11.9385 0.0300595 11.4725 0 11 0C10.6056 0 10.2154 0.0210416 9.83189 0.0619226V9.76575H0.0691371C0.0240478 10.171 0 10.5828 0 11C0 11.5573 0.0420833 12.105 0.122042 12.64H9.83189V21.9375L9.83128 21.9381Z" fill="#BD0034"/>
</svg>
