<svg xmlns="http://www.w3.org/2000/svg" width="160" height="150" viewBox="0 0 160 150" fill="none">
  <filter id="shadow" x="-30%" y="-30%" width="160%" height="160%">
    <feDropShadow dx="0" dy="16" stdDeviation="12" flood-color="#0c3818" flood-opacity=".16"/>
  </filter>
  <g filter="url(#shadow)" transform="rotate(18 80 75)">
    <path d="M137 28C91 27 47 50 23 110c58 13 103-15 124-72 2-5-4-10-10-10Z" fill="#228760"/>
    <path d="M132 33C91 36 55 55 31 103c48 7 88-16 108-62 2-4-2-8-7-8Z" fill="#3EAA78"/>
    <path d="M31 104c32-27 65-48 102-68" stroke="#0c3818" stroke-width="4" stroke-linecap="round" opacity=".32"/>
    <path d="M62 77c2 13 5 24 11 34M85 61c4 14 9 25 17 34M107 49c5 11 11 20 19 27" stroke="#B8F2B7" stroke-width="3" stroke-linecap="round" opacity=".55"/>
  </g>
</svg>
