<svg xmlns="http://www.w3.org/2000/svg" width="170" height="150" viewBox="0 0 170 150" fill="none">
  <filter id="shadow" x="-30%" y="-30%" width="160%" height="160%">
    <feDropShadow dx="0" dy="16" stdDeviation="12" flood-color="#0c3818" flood-opacity=".17"/>
  </filter>
  <g filter="url(#shadow)" transform="rotate(-8 85 75)">
    <path d="M138 66c-8-35-45-52-78-37-29 13-44 49-27 75 18 29 61 32 87 12 16-12 23-30 18-50Z" fill="#B3A84D"/>
    <path d="M123 68c-6-25-33-38-58-28-23 9-34 35-22 55 13 22 46 25 65 10 12-9 18-23 15-37Z" fill="#D5C95E"/>
    <path d="M44 59 30 49l18-2M68 39 57 22l22 9M99 41l8-19 7 20M127 67l19-7-10 18M121 103l18 10-21 3M80 118l5 22-15-16M47 100l-22 5 13-16" stroke="#80772E" stroke-width="5" stroke-linecap="round" stroke-linejoin="round"/>
    <path d="M62 70c10-9 26-12 41-3M58 91c15 8 32 8 47 0" stroke="#EFE487" stroke-width="5" stroke-linecap="round" opacity=".6"/>
  </g>
</svg>
