<svg width="512" height="512" viewBox="0 0 512 512" fill="none" xmlns="http://www.w3.org/2000/svg">
<g clip-path="url(#clip0_39_4389)">
<path fill-rule="evenodd" clip-rule="evenodd" d="M347.622 103.374C342.543 94.5787 339.572 86.2157 338.311 78.4543C211.159 17.6201 58.3121 114.889 60.0498 256.138C60.0478 364.306 147.738 451.996 255.908 451.996C406.517 453.374 502.293 283.835 424.005 155.614C419.569 158.139 415.529 159.934 412.167 160.834C395.866 156.467 363.613 131.071 347.622 103.374Z" fill="#89E14D"/>
<path d="M474.845 123.758C478.785 118.759 482.353 113.59 485.367 108.37C507.406 70.198 493.993 40.3605 475.81 26.4085C456.769 11.7981 431.272 11.813 412.168 25.5202C395.776 13.7566 374.675 12.0759 356.986 21.0694C189.911 -51.8311 -1.10438 73.6385 0.0927609 256.138C-2.7432 393.635 118.399 514.8 255.909 511.951C454.064 512.791 577.84 292.784 474.845 123.758ZM381.216 35.2791C389.221 35.2791 397.691 38.249 405.1 45.6577C409.003 49.5588 415.328 49.5588 419.233 45.6577C433.799 31.0922 452.466 33.6873 463.643 42.2641C475.976 51.7283 483.611 71.4381 468.058 98.3777C454.229 122.328 426.52 144.744 412.166 150.321C397.812 144.744 370.102 122.327 356.274 98.3777C340.72 71.4381 348.357 51.7273 360.689 42.2641C366.183 38.0491 373.483 35.2791 381.216 35.2791ZM255.907 491.967C125.87 491.967 20.0774 386.173 20.0774 256.136C17.768 93.9319 188.661 -23.8982 339.321 35.476C326.652 51.4075 320.907 77.09 338.968 108.37C355.852 137.618 390.175 165.286 409.581 170.487C411.274 170.941 413.058 170.941 414.753 170.487C426.914 167.228 444.933 155.145 460.849 139.379C550.779 293.777 434.804 493.55 255.907 491.967Z" fill="black"/>
<path d="M375.822 246.144C370.304 246.144 365.829 250.618 365.829 256.136C359.782 401.979 151.995 401.902 145.987 256.135C145.987 250.617 141.513 246.144 135.994 246.144C130.475 246.144 126.001 250.618 126.001 256.136C133.145 428.493 378.712 428.407 385.815 256.135C385.815 250.617 381.34 246.144 375.822 246.144Z" fill="black"/>
<path d="M194.753 245.864C200.272 245.864 204.745 241.389 204.745 235.871V195.9C204.217 182.642 185.283 182.652 184.76 195.9V235.871C184.76 241.389 189.234 245.864 194.753 245.864Z" fill="black"/>
<path d="M314.665 245.864C320.183 245.864 324.657 241.389 324.657 235.871V195.9C324.129 182.642 305.195 182.652 304.672 195.9V235.871C304.672 241.389 309.146 245.864 314.665 245.864Z" fill="black"/>
</g>
<defs>
<clipPath id="clip0_39_4389">
<rect width="512" height="512" fill="white"/>
</clipPath>
</defs>
</svg>
