<?xml version="1.0" encoding="UTF-8"?>
<svg xmlns="http://www.w3.org/2000/svg" viewBox="0 0 48 48" width="512" height="512"><g id="Quality"><path d="M36.5612,31.0477l.017-.0487a4.7331,4.7331,0,0,1,.5684-1.3037,4.5382,4.5382,0,0,1,1.1045-.8447,4.7791,4.7791,0,0,0,1.9727-1.877,4.8865,4.8865,0,0,0,.2051-2.7031,4.8209,4.8209,0,0,1-.0381-1.4541,4.5971,4.5971,0,0,1,.626-1.2334A4.9213,4.9213,0,0,0,42,19a4.9284,4.9284,0,0,0-.9824-2.582,4.5929,4.5929,0,0,1-.627-1.2344,4.8141,4.8141,0,0,1,.0381-1.4531,4.895,4.895,0,0,0-.2041-2.7031,4.786,4.786,0,0,0-1.9717-1.876,4.5422,4.5422,0,0,1-1.1055-.8467,4.7454,4.7454,0,0,1-.5693-1.3037,4.8525,4.8525,0,0,0-1.3447-2.3691,4.6656,4.6656,0,0,0-2.5674-.82,4.4639,4.4639,0,0,1-1.3633-.2773,4.5672,4.5672,0,0,1-1.0391-.9033A4.7557,4.7557,0,0,0,28.01,1.07a4.6334,4.6334,0,0,0-2.6348.4014A4.5614,4.5614,0,0,1,24,1.833a4.549,4.549,0,0,1-1.374-.3613,4.617,4.617,0,0,0-2.6357-.4A4.7494,4.7494,0,0,0,17.7373,2.63a4.5189,4.5189,0,0,1-1.0391.9033,4.4639,4.4639,0,0,1-1.3633.2773,4.6656,4.6656,0,0,0-2.5674.82,4.8616,4.8616,0,0,0-1.3457,2.37,4.7331,4.7331,0,0,1-.5684,1.3037,4.5382,4.5382,0,0,1-1.1045.8447,4.7791,4.7791,0,0,0-1.9727,1.877,4.8865,4.8865,0,0,0-.2051,2.7031,4.8209,4.8209,0,0,1,.0381,1.4541,4.5971,4.5971,0,0,1-.626,1.2334A4.9213,4.9213,0,0,0,6,19a4.9284,4.9284,0,0,0,.9824,2.582,4.5929,4.5929,0,0,1,.627,1.2344A4.8141,4.8141,0,0,1,7.5713,24.27a4.895,4.895,0,0,0,.2041,2.7031,4.786,4.786,0,0,0,1.9717,1.876,4.5422,4.5422,0,0,1,1.1055.8467,4.7454,4.7454,0,0,1,.5693,1.3037l.0185.0532c-.0032.0052-.0086.0079-.0117.0132L6.2705,40a1.9992,1.9992,0,0,0,2.0332,2.9766l3.4814-.5293,1.2832,3.2822A1.9846,1.9846,0,0,0,14.78,46.9941q.0776.0059.1553.0059a1.9838,1.9838,0,0,0,1.7275-1l5.3428-9.2552c.2124-.0684.4192-.1435.6191-.2165A4.5614,4.5614,0,0,1,24,36.167a4.549,4.549,0,0,1,1.374.3613c.2.0732.4091.1458.6216.2144L26,36.7559,31.3369,46a1.9838,1.9838,0,0,0,1.7275,1q.0776,0,.1553-.0059a1.9865,1.9865,0,0,0,1.7129-1.2656l1.2822-3.2812,3.48.5293A1.9993,1.9993,0,0,0,41.7295,40ZM14.9307,45l-1.5732-4.0264a1.0038,1.0038,0,0,0-1.082-.624L8.0029,41l4.5411-7.8657a2.6915,2.6915,0,0,0,.2226.2338,4.6656,4.6656,0,0,0,2.5674.82,4.4639,4.4639,0,0,1,1.3633.2773,4.5672,4.5672,0,0,1,1.0391.9033,5.3688,5.3688,0,0,0,1.924,1.4379ZM26.06,34.6494A6.0918,6.0918,0,0,0,24,34.167a6.0688,6.0688,0,0,0-2.06.4824,3.2821,3.2821,0,0,1-1.498.332,3.4063,3.4063,0,0,1-1.2656-.999,5.9478,5.9478,0,0,0-1.5947-1.31A6.008,6.008,0,0,0,15.5527,32.2a3.2425,3.2425,0,0,1-1.5205-.3809,3.4959,3.4959,0,0,1-.7139-1.4551,6.1466,6.1466,0,0,0-.89-1.8994,5.9769,5.9769,0,0,0-1.6133-1.3076A3.3462,3.3462,0,0,1,9.584,26.12a3.4849,3.4849,0,0,1-.0254-1.62,6.4136,6.4136,0,0,0,.0039-2.1172,6.0592,6.0592,0,0,0-.8838-1.86A3.4581,3.4581,0,0,1,8,19a3.4535,3.4535,0,0,1,.6787-1.5225,6.0369,6.0369,0,0,0,.8838-1.86A6.4136,6.4136,0,0,0,9.5586,13.5a3.47,3.47,0,0,1,.0264-1.62,3.3393,3.3393,0,0,1,1.2314-1.0391,5.9738,5.9738,0,0,0,1.6143-1.3066,6.1482,6.1482,0,0,0,.8877-1.8984A3.5068,3.5068,0,0,1,14.0332,6.18a3.2425,3.2425,0,0,1,1.5205-.3809,6.008,6.008,0,0,0,2.0293-.4727,5.9113,5.9113,0,0,0,1.5947-1.31,3.4049,3.4049,0,0,1,1.2656-.998,3.3038,3.3038,0,0,1,1.4971.332A6.0918,6.0918,0,0,0,24,3.833a6.0688,6.0688,0,0,0,2.06-.4824,3.31,3.31,0,0,1,1.498-.332,3.4063,3.4063,0,0,1,1.2656.999,5.9478,5.9478,0,0,0,1.5947,1.31A6.008,6.008,0,0,0,32.4473,5.8a3.2425,3.2425,0,0,1,1.5205.3809,3.4959,3.4959,0,0,1,.7139,1.4551,6.1466,6.1466,0,0,0,.89,1.8994,5.9769,5.9769,0,0,0,1.6133,1.3076A3.3462,3.3462,0,0,1,38.416,11.88a3.4849,3.4849,0,0,1,.0254,1.62,6.4136,6.4136,0,0,0-.0039,2.1172,6.0592,6.0592,0,0,0,.8838,1.86A3.4581,3.4581,0,0,1,40,19a3.4535,3.4535,0,0,1-.6787,1.5225,6.0369,6.0369,0,0,0-.8838,1.86A6.4136,6.4136,0,0,0,38.4414,24.5a3.47,3.47,0,0,1-.0264,1.62,3.3393,3.3393,0,0,1-1.2314,1.0391,5.9738,5.9738,0,0,0-1.6143,1.3066,6.1482,6.1482,0,0,0-.8877,1.8984,3.5068,3.5068,0,0,1-.7148,1.4561,3.2425,3.2425,0,0,1-1.5205.3809,6.008,6.008,0,0,0-2.0293.4727,5.9113,5.9113,0,0,0-1.5947,1.31,3.4049,3.4049,0,0,1-1.2656.998A3.3168,3.3168,0,0,1,26.06,34.6494Zm9.665,5.7a1.0055,1.0055,0,0,0-1.082.624L33.0693,45l-4.73-8.1934A5.3648,5.3648,0,0,0,30.2627,35.37a4.5189,4.5189,0,0,1,1.0391-.9033,4.4639,4.4639,0,0,1,1.3633-.2773,4.6656,4.6656,0,0,0,2.5674-.82,2.6975,2.6975,0,0,0,.2236-.2349L39.9971,41ZM36,19A12,12,0,1,0,24,31,12.0131,12.0131,0,0,0,36,19ZM24,29A10,10,0,1,1,34,19,10.0118,10.0118,0,0,1,24,29Zm4.5547-13.832a.9993.9993,0,0,1,.2773,1.3867l-4,6a1,1,0,0,1-.7334.44C24.0654,22.998,24.0322,23,24,23a1,1,0,0,1-.707-.293l-3-3A1,1,0,0,1,21.707,18.293l2.1377,2.1377,3.3232-4.9854A1.0005,1.0005,0,0,1,28.5547,15.168Z"/></g></svg>
