<?xml version="1.0" encoding="UTF-8" standalone="no"?>
<!-- Created with Inkscape (http://www.inkscape.org/) -->

<svg
   version="1.1"
   id="svg2673"
   xml:space="preserve"
   width="682.66669"
   height="682.66669"
   viewBox="0 0 682.66669 682.66669"
   xmlns="http://www.w3.org/2000/svg"
   xmlns:svg="http://www.w3.org/2000/svg"><defs
     id="defs2677"><clipPath
       clipPathUnits="userSpaceOnUse"
       id="clipPath2687"><path
         d="M 0,512 H 512 V 0 H 0 Z"
         id="path2685" /></clipPath></defs><g
     id="g2679"
     transform="matrix(1.3333333,0,0,-1.3333333,0,682.66667)"><g
       id="g2681"><g
         id="g2683"
         clip-path="url(#clipPath2687)"><g
           id="g2689"
           transform="translate(277.3979,424.9858)"><path
             d="m 0,0 -15.875,37.38 c -2.07,4.872 -8.976,4.872 -11.045,0 L -42.796,0"
             style="fill:none;stroke:#000000;stroke-width:15;stroke-linecap:round;stroke-linejoin:round;stroke-miterlimit:10;stroke-dasharray:none;stroke-opacity:1"
             id="path2691" /></g><g
           id="g2693"
           transform="translate(293.2729,391.7998)"><path
             d="m 0,0 16.85,40.606 c 1.8,4.337 -2.83,8.539 -6.973,6.328 L -21.732,30.059 c -9.712,-5.184 -21.37,-5.184 -31.081,0 l -31.61,16.875 c -4.142,2.211 -8.773,-1.991 -6.973,-6.328 L -74.546,0"
             style="fill:none;stroke:#000000;stroke-width:15;stroke-linecap:round;stroke-linejoin:round;stroke-miterlimit:10;stroke-dasharray:none;stroke-opacity:1"
             id="path2695" /></g><g
           id="g2697"
           transform="translate(155.021,343.6328)"><path
             d="m 0,0 c 3.81,27.22 27.187,48.167 55.457,48.167 h 91.044 c 28.27,0 51.647,-20.947 55.457,-48.167"
             style="fill:none;stroke:#000000;stroke-width:15;stroke-linecap:round;stroke-linejoin:round;stroke-miterlimit:10;stroke-dasharray:none;stroke-opacity:1"
             id="path2699" /></g><g
           id="g2701"
           transform="translate(315.4067,213.709)"><path
             d="m 0,0 c -2.312,7.431 -3.557,15.332 -3.557,23.523 0,43.688 35.417,79.104 79.105,79.104 43.688,0 79.104,-35.416 79.104,-79.104 0,-8.156 -1.235,-16.023 -3.527,-23.426"
             style="fill:none;stroke:#000000;stroke-width:15;stroke-linecap:round;stroke-linejoin:round;stroke-miterlimit:10;stroke-dasharray:none;stroke-opacity:1"
             id="path2703" /></g><g
           id="g2705"
           transform="translate(390.9546,316.3364)"><path
             d="M 0,0 V 65.942"
             style="fill:none;stroke:#000000;stroke-width:15;stroke-linecap:round;stroke-linejoin:round;stroke-miterlimit:10;stroke-dasharray:none;stroke-opacity:1"
             id="path2707" /></g><g
           id="g2709"
           transform="translate(403.8457,346.7461)"><path
             d="M 0,0 -12.891,10.803 0,21.605 c 11.147,9.342 27.39,9.342 38.538,0 l 8.317,-6.97 c 2.385,-1.998 2.385,-5.666 0,-7.665 L 38.538,0 C 27.39,-9.342 11.147,-9.342 0,0 Z"
             style="fill:none;stroke:#000000;stroke-width:15;stroke-linecap:round;stroke-linejoin:round;stroke-miterlimit:10;stroke-dasharray:none;stroke-opacity:1"
             id="path2711" /></g><g
           id="g2713"
           transform="translate(184.7466,213.8057)"><path
             d="m 0,0 21.282,46.843 c 3.06,6.736 4.047,14.23 2.833,21.528 v 0 c -3.581,21.538 -24.828,35.398 -45.983,29.996 l -28.004,-7.151 c -6.05,-1.545 -12.391,-1.545 -18.441,0 l -28.004,7.151 c -21.156,5.402 -42.402,-8.458 -45.983,-29.996 v 0 c -1.214,-7.298 -0.228,-14.792 2.832,-21.528 L -118.186,0"
             style="fill:none;stroke:#000000;stroke-width:15;stroke-linecap:round;stroke-linejoin:round;stroke-miterlimit:10;stroke-dasharray:none;stroke-opacity:1"
             id="path2715" /></g><g
           id="g2717"
           transform="translate(125.6538,304.9863)"><path
             d="M 0,0 V 77.292"
             style="fill:none;stroke:#000000;stroke-width:15;stroke-linecap:round;stroke-linejoin:round;stroke-miterlimit:10;stroke-dasharray:none;stroke-opacity:1"
             id="path2719" /></g><g
           id="g2721"
           transform="translate(112.7627,346.7461)"><path
             d="M 0,0 12.891,10.803 0,21.605 c -11.147,9.342 -27.39,9.342 -38.538,0 l -8.318,-6.97 C -49.24,12.637 -49.24,8.969 -46.855,6.97 L -38.538,0 C -27.39,-9.342 -11.147,-9.342 0,0 Z"
             style="fill:none;stroke:#000000;stroke-width:15;stroke-linecap:round;stroke-linejoin:round;stroke-miterlimit:10;stroke-dasharray:none;stroke-opacity:1"
             id="path2723" /></g><g
           id="g2725"
           transform="translate(484.3799,161.6851)"><path
             d="M 0,0 V -39.277"
             style="fill:none;stroke:#000000;stroke-width:15;stroke-linecap:round;stroke-linejoin:round;stroke-miterlimit:10;stroke-dasharray:none;stroke-opacity:1"
             id="path2727" /></g><g
           id="g2729"
           transform="translate(484.3799,79.3057)"><path
             d="m 0,0 v -61.806 c 0,-5.523 -4.477,-10 -10,-10 h -436.76 c -5.523,0 -10,4.477 -10,10 V 82.379"
             style="fill:none;stroke:#000000;stroke-width:15;stroke-linecap:round;stroke-linejoin:round;stroke-miterlimit:10;stroke-dasharray:none;stroke-opacity:1"
             id="path2731" /></g><g
           id="g2733"
           transform="translate(125.6538,161.6851)"><path
             d="m 0,0 h -108.154 c -5.523,0 -10,4.478 -10,10 v 32.121 c 0,5.523 4.477,10 10,10 h 477 c 5.523,0 10,-4.477 10,-10 V 10 c 0,-5.522 -4.477,-10 -10,-10 H 40.866"
             style="fill:none;stroke:#000000;stroke-width:15;stroke-linecap:round;stroke-linejoin:round;stroke-miterlimit:10;stroke-dasharray:none;stroke-opacity:1"
             id="path2735" /></g><g
           id="g2737"
           transform="translate(205.1201,339.7397)"><path
             d="M 0,0 H 6.72"
             style="fill:none;stroke:#000000;stroke-width:15;stroke-linecap:round;stroke-linejoin:round;stroke-miterlimit:10;stroke-dasharray:none;stroke-opacity:1"
             id="path2739" /></g><g
           id="g2741"
           transform="translate(252.6401,339.7397)"><path
             d="M 0,0 H 6.72"
             style="fill:none;stroke:#000000;stroke-width:15;stroke-linecap:round;stroke-linejoin:round;stroke-miterlimit:10;stroke-dasharray:none;stroke-opacity:1"
             id="path2743" /></g><g
           id="g2745"
           transform="translate(300.1602,339.7397)"><path
             d="M 0,0 H 6.72"
             style="fill:none;stroke:#000000;stroke-width:15;stroke-linecap:round;stroke-linejoin:round;stroke-miterlimit:10;stroke-dasharray:none;stroke-opacity:1"
             id="path2747" /></g><g
           id="g2749"
           transform="translate(252.6401,255.043)"><path
             d="M 0,0 H 6.72"
             style="fill:none;stroke:#000000;stroke-width:15;stroke-linecap:round;stroke-linejoin:round;stroke-miterlimit:10;stroke-dasharray:none;stroke-opacity:1"
             id="path2751" /></g><g
           id="g2753"
           transform="translate(228.8799,296.2798)"><path
             d="M 0,0 H 6.72"
             style="fill:none;stroke:#000000;stroke-width:15;stroke-linecap:round;stroke-linejoin:round;stroke-miterlimit:10;stroke-dasharray:none;stroke-opacity:1"
             id="path2755" /></g><g
           id="g2757"
           transform="translate(276.3999,296.2798)"><path
             d="M 0,0 H 6.72"
             style="fill:none;stroke:#000000;stroke-width:15;stroke-linecap:round;stroke-linejoin:round;stroke-miterlimit:10;stroke-dasharray:none;stroke-opacity:1"
             id="path2759" /></g><g
           id="g2761"
           transform="translate(285.8237,79.3057)"><path
             d="m 0,0 h -59.647 c -11.922,0 -21.587,9.665 -21.587,21.587 0,11.922 9.665,21.587 21.587,21.587 H 0 c 11.922,0 21.587,-9.665 21.587,-21.587 C 21.587,9.665 11.922,0 0,0 Z"
             style="fill:none;stroke:#000000;stroke-width:15;stroke-linecap:round;stroke-linejoin:round;stroke-miterlimit:10;stroke-dasharray:none;stroke-opacity:1"
             id="path2763" /></g><g
           id="g2765"
           transform="translate(487.5308,416.4653)"><path
             d="m 0,0 0.25,0.083 c 1.801,0.594 1.801,3.142 0,3.736 l -0.251,0.083 c -10.655,3.516 -19.014,11.876 -22.53,22.531 -0.028,0.084 -0.055,0.168 -0.082,0.25 -0.595,1.801 -3.142,1.799 -3.736,-0.001 l -0.083,-0.251 C -29.948,15.776 -38.306,7.418 -48.96,3.902 l -0.251,-0.083 c -1.802,-0.594 -1.802,-3.142 0,-3.736 L -48.961,0 c 10.655,-3.516 19.014,-11.877 22.53,-22.532 0.028,-0.084 0.055,-0.167 0.082,-0.25 0.595,-1.801 3.142,-1.799 3.736,0.002 l 0.083,0.25 C -19.014,-11.875 -10.655,-3.516 0,0 Z"
             style="fill:none;stroke:#000000;stroke-width:15;stroke-linecap:round;stroke-linejoin:round;stroke-miterlimit:10;stroke-dasharray:none;stroke-opacity:1"
             id="path2767" /></g><g
           id="g2769"
           transform="translate(114.6807,452.9741)"><path
             d="m 0,0 0.25,0.082 c 1.801,0.595 1.801,3.142 0,3.736 l -0.251,0.083 c -10.655,3.516 -19.014,11.877 -22.53,22.532 -0.027,0.084 -0.055,0.167 -0.082,0.25 -0.595,1.801 -3.141,1.799 -3.736,-0.002 L -26.432,26.43 C -29.948,15.775 -38.306,7.417 -48.96,3.901 l -0.251,-0.083 c -1.801,-0.594 -1.801,-3.141 0,-3.736 L -48.96,0 c 10.654,-3.517 19.013,-11.877 22.529,-22.532 0.028,-0.084 0.056,-0.168 0.083,-0.25 0.594,-1.801 3.141,-1.8 3.735,0.002 l 0.083,0.249 C -19.014,-11.875 -10.655,-3.517 0,0 Z"
             style="fill:none;stroke:#000000;stroke-width:15;stroke-linecap:round;stroke-linejoin:round;stroke-miterlimit:10;stroke-dasharray:none;stroke-opacity:1"
             id="path2771" /></g><g
           id="g2773"
           transform="translate(408.5039,463.8418)"><path
             d="m 0,0 0.362,0.12 c 2.612,0.862 2.612,4.557 0,5.419 l -0.364,0.12 c -15.453,5.099 -27.576,17.225 -32.676,32.679 -0.04,0.121 -0.08,0.243 -0.12,0.363 -0.862,2.612 -4.556,2.609 -5.418,-0.003 l -0.12,-0.364 C -43.436,22.88 -55.558,10.759 -71.011,5.659 l -0.364,-0.12 c -2.612,-0.862 -2.612,-4.557 0,-5.419 L -71.011,0 c 15.453,-5.1 27.577,-17.226 32.677,-32.679 0.04,-0.122 0.08,-0.243 0.119,-0.363 0.862,-2.612 4.556,-2.609 5.418,0.002 l 0.12,0.363 C -27.577,-17.223 -15.455,-5.1 0,0 Z"
             style="fill:none;stroke:#000000;stroke-width:15;stroke-linecap:round;stroke-linejoin:round;stroke-miterlimit:10;stroke-dasharray:none;stroke-opacity:1"
             id="path2775" /></g></g></g></g></svg>
