<svg height="512" viewBox="0 0 24 24" width="512" xmlns="http://www.w3.org/2000/svg"><g id="Layer_2" data-name="Layer 2"><path d="m16.9 22.75a1.46 1.46 0 0 1 -1.28-.75l-2.49-4.31a.75.75 0 0 1 1.3-.75l2.49 4.31.62-1.52a1.49 1.49 0 0 1 1.54-.88l1.64.2-3-5.17a.75.75 0 0 1 1.3-.75l3 5.18a1.5 1.5 0 0 1 -1.47 2.23l-1.64-.21-.63 1.51a1.49 1.49 0 0 1 -1.29.91z"/><path d="m7.5 22.75h-.08a1.49 1.49 0 0 1 -1.29-.91l-.65-1.52-1.62.21a1.47 1.47 0 0 1 -1.42-.65 1.49 1.49 0 0 1 0-1.56l3-5.19a.75.75 0 0 1 1.3.75l-3 5.18 1.63-.21a1.47 1.47 0 0 1 1.54.88l.65 1.52 2.44-4.31a.75.75 0 0 1 1.3.75l-2.52 4.31a1.46 1.46 0 0 1 -1.28.75z"/><path d="m12.2 18.91a2.53 2.53 0 0 1 -1.78-.73l-.88-.88a1 1 0 0 0 -.71-.3h-1a2.52 2.52 0 0 1 -2.51-2.51v-1a1 1 0 0 0 -.32-.75l-.89-.88a2.53 2.53 0 0 1 -.73-1.78 2.49 2.49 0 0 1 .72-1.77l.9-.89a1 1 0 0 0 .29-.71v-1a2.52 2.52 0 0 1 2.5-2.55h1a1 1 0 0 0 .71-.29l.92-.87a2.58 2.58 0 0 1 3.58 0l.88.88a1 1 0 0 0 .71.29h1a2.52 2.52 0 0 1 2.51 2.52v1a1 1 0 0 0 .29.71l.89.89a2.53 2.53 0 0 1 0 3.55l-.89.88a1 1 0 0 0 -.29.72v1a2.52 2.52 0 0 1 -2.49 2.56h-1a1 1 0 0 0 -.71.3l-.88.88a2.53 2.53 0 0 1 -1.82.73zm-4.41-14.25a1 1 0 0 0 -1 1v1a2.49 2.49 0 0 1 -.73 1.77l-.88.89a1 1 0 0 0 -.3.71 1 1 0 0 0 .3.72l.88.88a2.49 2.49 0 0 1 .73 1.78v1a1 1 0 0 0 1 1h1a2.46 2.46 0 0 1 1.77.74l.88.88a1.05 1.05 0 0 0 1.44 0l.88-.88a2.46 2.46 0 0 1 1.77-.74h1a1 1 0 0 0 1-1v-1a2.49 2.49 0 0 1 .73-1.78l.89-.88a1 1 0 0 0 0-1.43l-.89-.89a2.49 2.49 0 0 1 -.73-1.77v-1a1 1 0 0 0 -1-1h-1a2.49 2.49 0 0 1 -1.77-.73l-.88-.88a1 1 0 0 0 -1.44 0l-.88.88a2.49 2.49 0 0 1 -1.77.73z"/><path d="m11.54 12.42a.79.79 0 0 1 -.54-.22l-1.66-1.67a.75.75 0 0 1 0-1.06.77.77 0 0 1 1.07 0l1.13 1.14 2.8-2.81a.77.77 0 0 1 1.07 0 .75.75 0 0 1 0 1.06l-3.34 3.34a.77.77 0 0 1 -.53.22z"/></g></svg>