<?xml version="1.0" encoding="UTF-8" standalone="no"?>
<!-- Created with Inkscape (http://www.inkscape.org/) -->

<svg
   version="1.1"
   id="svg2079"
   xml:space="preserve"
   width="682.66669"
   height="682.66669"
   viewBox="0 0 682.66669 682.66669"
   xmlns="http://www.w3.org/2000/svg"
   xmlns:svg="http://www.w3.org/2000/svg"><defs
     id="defs2083"><clipPath
       clipPathUnits="userSpaceOnUse"
       id="clipPath2093"><path
         d="M 0,512 H 512 V 0 H 0 Z"
         id="path2091" /></clipPath></defs><g
     id="g2085"
     transform="matrix(1.3333333,0,0,-1.3333333,0,682.66667)"><g
       id="g2087"><g
         id="g2089"
         clip-path="url(#clipPath2093)"><g
           id="g2095"
           transform="translate(299.1914,120.1787)"><path
             d="M 0,0 C 0,0 138.47,85.474 138.47,190.911 138.47,296.348 0,381.821 0,381.821 c 0,0 -138.471,-85.473 -138.471,-190.91 0,-19.372 4.675,-38.069 12.305,-55.686"
             style="fill:none;stroke:#000000;stroke-width:20;stroke-linecap:round;stroke-linejoin:round;stroke-miterlimit:10;stroke-dasharray:none;stroke-opacity:1"
             id="path2097" /></g><g
           id="g2099"
           transform="translate(114.9268,73.2036)"><path
             d="m 0,0 c 59.553,-59.55 179.667,-35.989 179.667,-35.989 0,0 23.562,120.109 -35.991,179.659 C 84.124,203.22 -35.99,179.659 -35.99,179.659 -35.99,179.659 -59.552,59.55 0,0 Z"
             style="fill:none;stroke:#000000;stroke-width:20;stroke-linecap:round;stroke-linejoin:round;stroke-miterlimit:10;stroke-dasharray:none;stroke-opacity:1"
             id="path2101" /></g><g
           id="g2103"
           transform="translate(323.4971,136.5684)"><path
             d="m 0,0 c -35.662,-35.66 -21.553,-107.584 -21.553,-107.584 0,0 71.928,-14.109 107.589,21.551 35.661,35.659 21.552,107.584 21.552,107.584 C 107.588,21.551 35.661,35.66 0,0 Z"
             style="fill:none;stroke:#000000;stroke-width:20;stroke-linecap:round;stroke-linejoin:round;stroke-miterlimit:10;stroke-dasharray:none;stroke-opacity:1"
             id="path2105" /></g><g
           id="g2107"
           transform="translate(299.1914,365.9312)"><path
             d="M 0,0 V -355.931"
             style="fill:none;stroke:#000000;stroke-width:20;stroke-linecap:round;stroke-linejoin:round;stroke-miterlimit:10;stroke-dasharray:none;stroke-opacity:1"
             id="path2109" /></g><g
           id="g2111"
           transform="translate(299.1914,232.9727)"><path
             d="M 0,0 -53.324,53.321"
             style="fill:none;stroke:#000000;stroke-width:20;stroke-linecap:round;stroke-linejoin:round;stroke-miterlimit:10;stroke-dasharray:none;stroke-opacity:1"
             id="path2113" /></g><g
           id="g2115"
           transform="translate(299.1914,289.0967)"><path
             d="M 0,0 53.323,53.322"
             style="fill:none;stroke:#000000;stroke-width:20;stroke-linecap:round;stroke-linejoin:round;stroke-miterlimit:10;stroke-dasharray:none;stroke-opacity:1"
             id="path2117" /></g><g
           id="g2119"
           transform="translate(298.4336,32.6167)"><path
             d="M 0,0 -129.288,130.041"
             style="fill:none;stroke:#000000;stroke-width:20;stroke-linecap:round;stroke-linejoin:round;stroke-miterlimit:10;stroke-dasharray:none;stroke-opacity:1"
             id="path2121" /></g><g
           id="g2123"
           transform="translate(220.7197,111.9404)"><path
             d="M 0,0 V 54.03"
             style="fill:none;stroke:#000000;stroke-width:20;stroke-linecap:round;stroke-linejoin:round;stroke-miterlimit:10;stroke-dasharray:none;stroke-opacity:1"
             id="path2125" /></g><g
           id="g2127"
           transform="translate(301.9443,28.9839)"><path
             d="M 0,0 64.57,64.568"
             style="fill:none;stroke:#000000;stroke-width:20;stroke-linecap:round;stroke-linejoin:round;stroke-miterlimit:10;stroke-dasharray:none;stroke-opacity:1"
             id="path2129" /></g></g></g></g></svg>
