<svg id="Layer_1" enable-background="new 0 0 128 128" viewBox="0 0 128 128" xmlns="http://www.w3.org/2000/svg"><g><path d="m108.59 79.54c3.21-1.99 6.53-4.05 7.69-7.61 1.11-3.41-.32-6.95-1.71-10.37-.92-2.28-1.87-4.64-1.87-6.61s.95-4.33 1.87-6.61c1.38-3.42 2.81-6.96 1.71-10.38-1.16-3.56-4.48-5.62-7.69-7.61-2.11-1.31-4.11-2.55-5.19-4.03-1.1-1.52-1.67-3.82-2.28-6.25-.9-3.64-1.84-7.41-4.83-9.58-2.95-2.15-6.8-1.88-10.51-1.62-2.53.18-4.91.34-6.73-.25-1.7-.55-3.46-2.04-5.33-3.62-2.76-2.34-5.91-5-9.72-5s-6.96 2.66-9.73 5c-1.87 1.58-3.63 3.07-5.33 3.62-1.82.59-4.2.43-6.73.25-3.72-.26-7.57-.53-10.51 1.62-2.99 2.17-3.92 5.94-4.83 9.58-.6 2.44-1.17 4.74-2.28 6.25-1.08 1.48-3.08 2.72-5.19 4.03-3.21 1.99-6.53 4.05-7.69 7.61-1.11 3.41.32 6.95 1.71 10.37.92 2.28 1.87 4.63 1.87 6.61s-.95 4.33-1.87 6.61c-1.38 3.42-2.81 6.96-1.71 10.37 1.16 3.56 4.48 5.62 7.69 7.61 2.11 1.31 4.11 2.55 5.17 4.01.06.08.11.17.16.25l-11.66 29.92c-.23.59-.17 1.26.17 1.79.34.54.91.88 1.54.93l15.28 1.14 12.02 9.49c.36.28.79.43 1.24.43.18 0 .35-.02.52-.07.61-.17 1.11-.61 1.34-1.2l8.5-21.81c.19.16.38.32.58.48 2.77 2.34 5.91 5 9.73 5s6.96-2.66 9.73-5c.2-.17.38-.32.58-.48l8.5 21.81c.23.59.73 1.04 1.34 1.2.17.05.35.07.52.07.44 0 .88-.15 1.24-.43l12.02-9.49 15.28-1.14c.63-.05 1.2-.39 1.54-.93s.4-1.2.17-1.79l-11.65-29.91c.05-.08.09-.16.14-.23 1.08-1.48 3.08-2.72 5.19-4.03zm-66.14 42.71-10.38-8.2c-.31-.25-.69-.4-1.09-.42l-13.19-.99 9.01-23.12c.03.11.05.21.08.31.9 3.64 1.84 7.4 4.82 9.57 2.95 2.15 6.79 1.88 10.51 1.62 2.53-.18 4.91-.34 6.73.25.44.14.91.37 1.42.67zm21.55-16.34c-2.35 0-4.68-1.97-7.15-4.06-.92-.78-1.88-1.59-2.86-2.31-.03-.02-.06-.04-.09-.06-1.37-.98-2.55-1.62-3.72-2.01-1.44-.47-2.98-.61-4.54-.61-1.23 0-2.48.09-3.7.17-3.14.22-6.11.43-7.88-.86-1.8-1.31-2.52-4.22-3.29-7.29-.51-2.07-1.05-4.21-1.97-6.04 0-.01-.01-.02-.02-.03-.01-.02-.02-.05-.03-.07-.25-.5-.54-.99-.91-1.51-1.54-2.12-3.97-3.62-6.31-5.08-2.72-1.69-5.29-3.28-5.99-5.44-.66-2.02.45-4.75 1.61-7.64 1.06-2.63 2.17-5.36 2.17-8.11s-1.1-5.48-2.17-8.11c-1.17-2.89-2.27-5.62-1.61-7.64.71-2.17 3.27-3.76 6-5.45 2.35-1.46 4.77-2.96 6.31-5.08 1.56-2.15 2.25-4.94 2.92-7.64.76-3.08 1.49-6 3.3-7.31 1.77-1.29 4.74-1.08 7.88-.86 2.8.2 5.69.4 8.25-.44 2.44-.79 4.59-2.61 6.68-4.37 2.44-2.09 4.77-4.06 7.12-4.06s4.68 1.97 7.14 4.06c2.08 1.76 4.23 3.58 6.67 4.37 2.56.83 5.45.63 8.25.44 3.15-.22 6.11-.43 7.88.86 1.81 1.31 2.53 4.23 3.29 7.31.67 2.7 1.36 5.49 2.92 7.65 1.54 2.12 3.97 3.62 6.31 5.08 2.72 1.69 5.29 3.28 5.99 5.44.66 2.02-.45 4.75-1.61 7.64-1.06 2.63-2.17 5.36-2.17 8.11s1.1 5.48 2.17 8.11c1.17 2.89 2.27 5.61 1.61 7.64-.71 2.17-3.27 3.76-5.99 5.45-2.35 1.46-4.77 2.96-6.33 5.1-.35.5-.64.98-.88 1.47-.01.03-.02.05-.04.08-.01.02-.02.04-.03.06-.92 1.84-1.45 3.97-1.97 6.03-.77 3.08-1.49 5.99-3.29 7.3-1.77 1.29-4.74 1.08-7.88.86-2.8-.2-5.69-.4-8.25.44-1.16.38-2.35 1.02-3.71 2 0 0-.01.01-.01.01-.03.02-.05.04-.08.06-.98.71-1.93 1.52-2.86 2.3-2.45 2.06-4.78 4.04-7.13 4.04zm33.02 7.72c-.4.03-.78.18-1.09.42l-10.38 8.2-7.92-20.31c.51-.3.98-.52 1.42-.66 1.82-.59 4.2-.43 6.73-.25 3.72.26 7.57.53 10.51-1.62 2.98-2.17 3.92-5.93 4.82-9.57.03-.11.05-.21.08-.31l9.01 23.12z"/><path d="m102.33 54.95c0-21.13-17.19-38.33-38.33-38.33s-38.33 17.2-38.33 38.33c0 21.14 17.19 38.33 38.33 38.33s38.33-17.19 38.33-38.33zm-38.33 34.33c-18.93 0-34.33-15.4-34.33-34.33s15.4-34.33 34.33-34.33 34.33 15.4 34.33 34.33-15.4 34.33-34.33 34.33z"/><path d="m82.8 44.3-9.2-1.34c-.38-.05-.7-.29-.87-.63l-4.11-8.33c-.87-1.77-2.65-2.87-4.62-2.87s-3.75 1.1-4.62 2.87l-4.11 8.33c-.17.34-.49.58-.87.63l-9.2 1.34c-1.96.28-3.55 1.63-4.16 3.51s-.11 3.9 1.3 5.28l6.66 6.49c.27.26.39.65.33 1.02l-1.57 9.16c-.33 1.95.45 3.88 2.05 5.04s3.68 1.31 5.43.39l8.22-4.32c.34-.18.74-.18 1.07 0l8.23 4.32c.76.4 1.58.6 2.4.6 1.06 0 2.12-.33 3.02-.99 1.6-1.16 2.38-3.09 2.05-5.04l-1.57-9.16c-.06-.38.06-.76.33-1.02l6.65-6.49c1.42-1.38 1.91-3.4 1.3-5.28-.59-1.88-2.19-3.22-4.14-3.51zm.06 5.93-6.65 6.49c-1.22 1.18-1.77 2.89-1.48 4.56l1.57 9.16c.11.64-.28 1-.46 1.13s-.64.39-1.21.09l-8.23-4.32c-.75-.39-1.57-.59-2.4-.59-.82 0-1.65.2-2.4.59l-8.23 4.32c-.57.3-1.04.04-1.21-.09s-.57-.49-.46-1.13l1.57-9.16c.29-1.67-.27-3.38-1.48-4.56l-6.65-6.49c-.46-.45-.36-.98-.29-1.18.07-.21.29-.69.93-.79l9.2-1.34c1.68-.24 3.13-1.3 3.88-2.82l4.11-8.33c.29-.58.82-.64 1.03-.64s.75.06 1.03.64l4.11 8.33c.75 1.52 2.2 2.57 3.88 2.82l9.2 1.34c.64.09.86.58.93.79.07.2.18.73-.29 1.18z"/></g></svg>