<?xml version="1.0" encoding="UTF-8" standalone="no"?>
<!-- Created with Inkscape (http://www.inkscape.org/) -->

<svg
   version="1.1"
   id="svg2172"
   xml:space="preserve"
   width="682.66669"
   height="682.66669"
   viewBox="0 0 682.66669 682.66669"
   xmlns="http://www.w3.org/2000/svg"
   xmlns:svg="http://www.w3.org/2000/svg"><defs
     id="defs2176"><clipPath
       clipPathUnits="userSpaceOnUse"
       id="clipPath2186"><path
         d="M 0,512 H 512 V 0 H 0 Z"
         id="path2184" /></clipPath></defs><g
     id="g2178"
     transform="matrix(1.3333333,0,0,-1.3333333,0,682.66667)"><g
       id="g2180"><g
         id="g2182"
         clip-path="url(#clipPath2186)"><g
           id="g2188"
           transform="translate(142.5137,368.7988)"><path
             d="m 0,0 -28.282,28.283 c -15.621,15.62 -40.947,15.621 -56.569,0 L -99.029,14.104 c -26.153,-26.151 -31.025,-66.634 -11.781,-98.218 23.532,-38.617 60.554,-91.904 110.812,-142.162 50.276,-50.276 103.584,-87.307 142.203,-110.836 31.571,-19.235 72.039,-14.333 98.177,11.805 l 14.179,14.178 c 15.621,15.621 15.621,40.948 0,56.569 l -28.285,28.284 c -19.866,19.866 -39.05,12.807 -54.593,0.794 -15.196,-11.744 -35.823,-12.835 -50.926,-0.974 -21.041,16.525 -42.886,35.449 -64.187,56.748 -21.367,21.368 -40.342,43.284 -56.904,64.386 -11.753,14.974 -10.876,35.453 0.703,50.562 C 12.467,-38.976 19.621,-19.621 0,0 Z"
             style="fill:none;stroke:#000000;stroke-width:40;stroke-linecap:round;stroke-linejoin:round;stroke-miterlimit:10;stroke-dasharray:none;stroke-opacity:1"
             id="path2190" /></g><g
           id="g2192"
           transform="translate(163.29,445.0869)"><path
             d="m 0,0 c 34.784,29.275 79.688,46.913 128.71,46.913 110.457,0 200,-89.543 200,-200 0,-49.031 -17.644,-93.941 -46.928,-128.727"
             style="fill:none;stroke:#000000;stroke-width:40;stroke-linecap:round;stroke-linejoin:round;stroke-miterlimit:10;stroke-dasharray:none;stroke-opacity:1"
             id="path2194" /></g><g
           id="g2196"
           transform="translate(292,372)"><path
             d="m 0,0 v -80 l 40,-40"
             style="fill:none;stroke:#000000;stroke-width:40;stroke-linecap:round;stroke-linejoin:round;stroke-miterlimit:10;stroke-dasharray:none;stroke-opacity:1"
             id="path2198" /></g></g></g></g></svg>
