<svg width="512" height="512" viewBox="0 0 512 512" fill="none" xmlns="http://www.w3.org/2000/svg">
<path fill-rule="evenodd" clip-rule="evenodd" d="M148.627 218.405C150.072 255.484 171.547 277.844 186.621 286.516C195.323 291.649 209.128 296.398 225.647 296.103C226.65 270.115 235.942 250.204 247.092 236.163C240.455 227.579 232.962 221.502 226.62 217.874C211.664 209.024 181.606 201.355 148.627 218.405Z" fill="#89E14D"/>
<path d="M270.749 215.248C252.873 225.513 227.357 252.091 225.646 296.103C264.79 316.339 300.483 307.253 318.241 296.752C336.146 286.457 361.662 259.909 363.373 215.868C324.229 195.661 288.536 204.747 270.749 215.248Z" stroke="black" stroke-width="20" stroke-miterlimit="10" stroke-linecap="round" stroke-linejoin="round"/>
<path d="M225.646 296.103C218.507 330.232 223.286 370.291 255.675 416.987L267.12 433.388" stroke="black" stroke-width="20" stroke-miterlimit="10" stroke-linecap="round" stroke-linejoin="round"/>
<path d="M225.646 296.103L294.495 255.985" stroke="black" stroke-width="20" stroke-miterlimit="10" stroke-linecap="round" stroke-linejoin="round"/>
<path fill-rule="evenodd" clip-rule="evenodd" d="M15.7962 198.434L51.7542 219.171C49.6012 231.118 48.4802 243.448 48.4802 255.985C48.4802 268.551 49.6012 280.852 51.7542 292.828L15.7962 313.565C6.65223 318.845 3.49523 330.644 8.77523 339.759L59.8362 428.224C65.1162 437.368 76.8862 440.525 86.0302 435.245L122.018 414.449C140.72 430.29 162.254 442.856 185.764 451.292V492.825C185.764 503.356 194.377 511.999 204.938 511.999H307.061C317.621 511.999 326.235 503.356 326.235 492.825V451.292C349.745 442.856 371.279 430.289 389.981 414.449L425.969 435.245C435.113 440.525 446.883 437.369 452.163 428.224L503.224 339.759C508.504 330.644 505.348 318.845 496.203 313.565L460.245 292.828C462.398 280.852 463.519 268.551 463.519 255.985C463.519 243.448 462.398 231.118 460.245 219.171L496.203 198.434C505.347 193.154 508.504 181.355 503.224 172.24L452.163 83.775C446.883 74.631 435.113 71.474 425.969 76.754L389.981 97.55C371.279 81.709 349.745 69.143 326.235 60.677V19.174C326.235 8.643 317.622 0 307.061 0H204.939C194.379 0 185.765 8.643 185.765 19.174V60.707C162.255 69.143 140.721 81.71 122.019 97.55L86.0312 76.754C76.8872 71.474 65.1172 74.63 59.8372 83.775L8.77623 172.24C3.49623 181.355 6.65223 193.154 15.7962 198.434ZM94.7632 255.985C94.7632 166.96 166.945 94.777 256 94.777C345.026 94.777 417.208 166.959 417.208 255.985C417.208 345.04 345.026 417.222 256 417.222C166.945 417.222 94.7632 345.04 94.7632 255.985Z" fill="#89E14D"/>
</svg>
