<svg xmlns="http://www.w3.org/2000/svg" version="1.1" xmlns:xlink="http://www.w3.org/1999/xlink" width="512" height="512" x="0" y="0" viewBox="0 0 512 512" style="enable-background:new 0 0 512 512" xml:space="preserve" class=""><g><circle cx="256" cy="200.776" r="135.551" style="" fill="#75e545" data-original="#fff59b" class="" opacity="1"></circle><path d="m154.769 344.851-49.381 118.532 61.791-17.762L198.075 502 256 376.697M357.232 344.851l49.38 118.532-61.791-17.762L313.926 502 256 376.697" style="stroke-width:20;stroke-linecap:round;stroke-linejoin:round;stroke-miterlimit:10;" fill="none" stroke="#0c3818" stroke-width="20" stroke-linecap="round" stroke-linejoin="round" stroke-miterlimit="10" data-original="#020288" opacity="1"></path><path d="M56.63 200.776c0-20.242 26.087-36.114 32.018-54.379 6.147-18.93-5.416-47.064 6.051-62.821 11.582-15.915 41.989-13.555 57.903-25.137 15.757-11.467 22.845-41.178 41.775-47.325 18.265-5.93 41.381 13.747 61.623 13.747 20.242 0 43.357-19.677 61.622-13.746 18.93 6.147 26.018 35.858 41.776 47.325 15.915 11.582 46.321 9.222 57.903 25.137 11.467 15.757-.095 43.89 6.051 62.82 5.931 18.265 32.018 34.137 32.018 54.379 0 20.242-26.087 36.114-32.018 54.379-6.147 18.93 5.416 47.064-6.051 62.821-11.582 15.915-41.989 13.555-57.903 25.137-15.757 11.467-22.845 41.178-41.775 47.325-18.265 5.931-41.381-13.746-61.623-13.746-20.242 0-43.357 19.677-61.622 13.746-18.93-6.147-26.018-35.858-41.775-47.325-15.915-11.582-46.321-9.222-57.904-25.137-11.467-15.757.095-43.89-6.051-62.82-5.931-18.266-32.018-34.138-32.018-54.38z" style="stroke-width:20;stroke-linecap:round;stroke-linejoin:round;stroke-miterlimit:10;" fill="none" stroke="#0c3818" stroke-width="20" stroke-linecap="round" stroke-linejoin="round" stroke-miterlimit="10" data-original="#020288" opacity="1"></path><path d="m256 110.408 26.1 52.884 58.36 8.48-42.23 41.165 9.969 58.124L256 243.618l-52.199 27.443 9.969-58.124-42.23-41.165 58.36-8.48z" style="stroke-width:20;stroke-linecap:round;stroke-linejoin:round;stroke-miterlimit:10;" fill="none" stroke="#0c3818" stroke-width="20" stroke-linecap="round" stroke-linejoin="round" stroke-miterlimit="10" data-original="#020288" opacity="1"></path></g></svg>