<svg id="Layer_1" height="512" viewBox="0 0 32 32" width="512" xmlns="http://www.w3.org/2000/svg"><path d="m8.163 22.25h-1.203c-.551 0-1-.449-1-1v-4c0-.552-.448-1-1-1s-1 .448-1 1v4c0 1.654 1.346 3 3 3h1.203c.434 1.44 1.757 2.5 3.337 2.5s2.903-1.06 3.337-2.5h4.163 2.163c.434 1.44 1.757 2.5 3.337 2.5s2.903-1.06 3.337-2.5h2.163c.552 0 1-.448 1-1v-5c0-.743-.311-1.769-.723-2.387l-2.891-4.336c-.494-.74-1.498-1.277-2.387-1.277h-2.804v-2c0-1.654-1.346-3-3-3h-3.195c-.552 0-1 .448-1 1s.448 1 1 1h3.196c.551 0 1 .449 1 1v14h-1.196-4.163c-.434-1.44-1.757-2.5-3.337-2.5s-2.903 1.06-3.337 2.5zm16.337 2.5c-.827 0-1.5-.673-1.5-1.5s.673-1.5 1.5-1.5 1.5.673 1.5 1.5-.673 1.5-1.5 1.5zm-2.304-12.5h2.804c.217 0 .602.206.723.387l1.742 2.613h-5.269zm0 5h6.561c.136.317.243.737.243 1v4h-1.163c-.434-1.44-1.757-2.5-3.337-2.5-.886 0-1.687.341-2.304.886zm-9.196 6c0 .827-.673 1.5-1.5 1.5s-1.5-.673-1.5-1.5.673-1.5 1.5-1.5 1.5.673 1.5 1.5z"/><path d="m14 6.25c0-.552-.448-1-1-1h-11c-.552 0-1 .448-1 1s.448 1 1 1h11c.552 0 1-.448 1-1z"/><path d="m11 11.25c.552 0 1-.448 1-1s-.448-1-1-1h-7c-.552 0-1 .448-1 1s.448 1 1 1z"/><path d="m9 15.25c.552 0 1-.448 1-1s-.448-1-1-1h-3c-.552 0-1 .448-1 1s.448 1 1 1z"/></svg>