<svg xmlns="http://www.w3.org/2000/svg" version="1.1" xmlns:xlink="http://www.w3.org/1999/xlink" width="512" height="512" x="0" y="0" viewBox="0 0 512 512" style="enable-background:new 0 0 512 512" xml:space="preserve" class=""><g><path d="M502 256c0 70.135-29.349 133.412-76.441 178.224C381.43 476.225 321.737 502 256 502s-125.43-25.775-169.559-67.776C39.349 389.412 10 326.135 10 256S39.349 122.588 86.441 77.775C130.57 35.775 190.263 10 256 10s125.43 25.775 169.559 67.775C472.651 122.588 502 185.865 502 256z" style="stroke-width:20;stroke-linecap:round;stroke-linejoin:round;stroke-miterlimit:10;" fill="none" stroke="#0c3818" stroke-width="20" stroke-linecap="round" stroke-linejoin="round" stroke-miterlimit="10" data-original="#020288" opacity="1" class=""></path><path d="M94.724 70.245a245.76 245.76 0 0 0 63.428 40.013c29.982 13.023 63.076 20.232 97.848 20.232s67.866-7.209 97.848-20.232a245.7 245.7 0 0 0 63.428-40.013M417.276 441.755a245.76 245.76 0 0 0-63.428-40.013C323.866 388.72 290.771 381.51 256 381.51s-67.866 7.209-97.848 20.232a245.724 245.724 0 0 0-63.428 40.013" style="stroke-width:20;stroke-linecap:round;stroke-linejoin:round;stroke-miterlimit:10;" fill="none" stroke="#0c3818" stroke-width="20" stroke-linecap="round" stroke-linejoin="round" stroke-miterlimit="10" data-original="#020288" opacity="1" class=""></path><ellipse cx="256" cy="256" rx="135.551" ry="246" style="stroke-width:20;stroke-linecap:round;stroke-linejoin:round;stroke-miterlimit:10;" fill="none" stroke="#0c3818" stroke-width="20" stroke-linecap="round" stroke-linejoin="round" stroke-miterlimit="10" data-original="#020288" opacity="1" class=""></ellipse><path d="M256 502V329.398M256 201.498V10M178.776 256H10M333.234 256H502" style="stroke-width:20;stroke-linecap:round;stroke-linejoin:round;stroke-miterlimit:10;" fill="none" stroke="#0c3818" stroke-width="20" stroke-linecap="round" stroke-linejoin="round" stroke-miterlimit="10" data-original="#020288" opacity="1" class=""></path><path d="m256.001 343.059-78.657-73.167c-22.221-22.221-22.221-58.377 0-80.598 21.583-21.584 56.318-22.203 78.657-1.852 10.516-9.591 24.035-14.842 38.358-14.842 15.221 0 29.533 5.929 40.299 16.694 10.761 10.761 16.688 25.07 16.689 40.294.001 15.227-5.926 29.54-16.689 40.304l-.261.251-78.396 72.916z" style="" fill="#75e545" data-original="#ffbdbc" class="" opacity="1"></path></g></svg>