<svg width="512" height="512" viewBox="0 0 512 512" fill="none" xmlns="http://www.w3.org/2000/svg">
<g clip-path="url(#clip0_39_4338)">
<path fill-rule="evenodd" clip-rule="evenodd" d="M300.227 122.828C253.771 118.176 241.227 49.2343 303.844 32.4563C321.127 27.8253 342.119 27.5143 359.679 30.1903C367.34 31.3583 377.083 33.4773 383.845 37.3813C385.285 38.2123 384.844 37.7713 385.675 39.2113C393.793 53.2723 395.268 80.4663 394.227 96.2483C392.693 119.5 385.233 145.774 363.009 157.213C336.505 170.854 303.373 154.241 300.227 122.828ZM199.385 165.505C194.789 205.512 135.308 215.911 120.847 161.943C116.866 147.087 116.594 129.061 118.896 113.967C119.909 107.325 121.741 98.9393 125.126 93.0763C125.957 91.6363 125.516 92.0773 126.956 91.2463C139.107 84.2313 162.43 82.9473 176.074 83.8473C196.191 85.1743 218.836 91.6693 228.734 110.9C240.524 133.808 226.357 162.406 199.385 165.505Z" fill="#89E14D"/>
<path d="M365.312 363.599L471.433 337.975C504.324 330.66 512.869 370.062 486.209 379.697C467.883 386.105 385.435 421.312 328.673 442.595C287.845 457.903 275.497 459.95 232.5 457.899L167.135 454.782L155.354 473.504M10 473.504L43.236 405.695C97.933 294.101 205.264 350.138 255.675 345.481C266.462 344.485 331.885 337.035 342.674 336.039C353.932 334.999 363.969 343.676 364.978 355.321C365.987 366.966 356.767 373.872 346.342 378.386C319.004 390.222 289.265 400.545 264.32 406.403" stroke="black" stroke-width="20" stroke-miterlimit="2.6131" stroke-linecap="round" stroke-linejoin="round"/>
<path d="M109.058 339.819C116.717 313.343 141.139 293.984 170.082 293.984C172.993 293.984 175.857 294.184 178.664 294.563C192.584 265.886 221.982 246.115 256 246.115C290.018 246.115 319.416 265.886 333.336 294.563C336.143 294.184 339.007 293.984 341.918 293.984C374.237 293.984 400.918 318.122 404.918 349.353" stroke="black" stroke-width="20" stroke-miterlimit="22.9256" stroke-linecap="round" stroke-linejoin="round"/>
<path d="M256 241.117C232.032 200.204 195.072 158.759 175.177 141.297" stroke="black" stroke-width="20" stroke-miterlimit="22.9256" stroke-linecap="round" stroke-linejoin="round"/>
<path d="M331.638 90.9756C303.263 112.41 256 178.467 256 241.117" stroke="black" stroke-width="20" stroke-miterlimit="22.9256" stroke-linecap="round" stroke-linejoin="round"/>
</g>
<defs>
<clipPath id="clip0_39_4338">
<rect width="511.999" height="511.999" fill="white"/>
</clipPath>
</defs>
</svg>
