<svg width="48" height="48" viewBox="0 0 512 512" fill="none" xmlns="http://www.w3.org/2000/svg" aria-hidden="true">
  <path d="M356.225 197.213C350.795 202.988 343.092 206.594 334.548 206.594C318.105 206.594 304.775 193.242 304.775 176.771C304.775 168.287 308.312 160.63 313.99 155.199C296.926 145.328 277.122 139.679 256.001 139.679C191.867 139.679 139.876 191.757 139.876 255.999C139.876 320.241 191.866 372.319 256 372.319C320.134 372.319 372.125 320.241 372.125 255.999C372.125 234.554 366.331 214.463 356.225 197.213Z" fill="#89E14D"/>
  <path d="M510.23 250.319C509.078 248.651 481.506 208.989 436.622 168.77C410.128 145.029 383.099 126.081 356.286 112.452C322.32 95.188 288.579 86.434 256 86.434C223.421 86.434 189.68 95.187 155.715 112.452C128.902 126.081 101.873 145.029 75.379 168.77C30.494 208.99 2.922 248.651 1.77 250.319C-0.59 253.738 -0.59 258.261 1.77 261.68C2.922 263.348 30.494 303.01 75.378 343.229C101.872 366.97 128.901 385.918 155.714 399.547C189.679 416.811 223.42 425.565 255.999 425.565C288.578 425.565 322.319 416.812 356.284 399.547C383.097 385.918 410.126 366.97 436.62 343.229C481.504 303.009 509.077 263.348 510.228 261.68C512.59 258.261 512.59 253.739 510.23 250.319ZM422.948 328.627C383.704 363.726 322.885 405.565 256 405.565C189.115 405.565 128.295 363.726 89.052 328.627C55.526 298.642 31.557 268.287 22.367 256C31.557 243.711 55.526 213.357 89.052 183.373C128.296 148.274 189.115 106.435 256 106.435C322.885 106.435 383.705 148.274 422.948 183.373C456.474 213.358 480.442 243.712 489.633 256C480.442 268.288 456.474 298.642 422.948 328.627Z" fill="white"/>
  <path d="M256 215.78C233.85 215.78 215.83 233.822 215.83 256C215.83 278.178 233.85 296.22 256 296.22C278.15 296.22 296.17 278.178 296.17 256C296.17 233.822 278.15 215.78 256 215.78ZM256 276.22C244.878 276.22 235.83 267.149 235.83 256C235.83 244.851 244.878 235.78 256 235.78C267.122 235.78 276.17 244.851 276.17 256C276.17 267.149 267.121 276.22 256 276.22Z" fill="white"/>
  <path d="M256 61.638C261.523 61.638 266 57.161 266 51.638V37.323C266 31.8 261.523 27.323 256 27.323C250.477 27.323 246 31.8 246 37.323V51.638C246 57.161 250.477 61.638 256 61.638Z" fill="white"/>
  <path d="M256 450.362C250.477 450.362 246 454.839 246 460.362V474.677C246 480.2 250.477 484.677 256 484.677C261.523 484.677 266 480.2 266 474.677V460.362C266 454.839 261.523 450.362 256 450.362Z" fill="white"/>
  <path d="M104.659 118.559C106.612 120.515 109.174 121.494 111.736 121.494C114.293 121.494 116.849 120.52 118.801 118.571C122.709 114.669 122.715 108.338 118.812 104.429L108.707 94.307C104.806 90.4 98.4745 90.393 94.5655 94.296C90.6575 98.198 90.6515 104.529 94.5545 108.438L104.659 118.559Z" fill="white"/>
  <path d="M407.341 393.44C403.44 389.532 397.108 389.526 393.199 393.429C389.291 397.331 389.285 403.662 393.188 407.571L403.293 417.693C405.246 419.649 407.808 420.628 410.37 420.628C412.927 420.628 415.483 419.654 417.435 417.705C421.343 413.803 421.349 407.472 417.446 403.563L407.341 393.44Z" fill="white"/>
  <path d="M400.264 121.494C402.826 121.494 405.388 120.515 407.341 118.559L417.446 108.437C421.348 104.528 421.343 98.197 417.435 94.295C413.526 90.393 407.194 90.398 403.293 94.306L393.188 104.428C389.286 108.337 389.291 114.668 393.199 118.57C395.151 120.52 397.707 121.494 400.264 121.494Z" fill="white"/>
  <path d="M104.659 393.44L94.5541 403.562C90.6521 407.471 90.6571 413.802 94.5651 417.704C96.5181 419.653 99.0741 420.627 101.63 420.627C104.192 420.627 106.754 419.648 108.707 417.692L118.812 407.57C122.714 403.661 122.709 397.33 118.801 393.428C114.892 389.527 108.56 389.532 104.659 393.44Z" fill="white"/>
</svg>
