<?xml version="1.0" encoding="UTF-8"?>
<svg id="Layer_2" data-name="Layer 2" xmlns="http://www.w3.org/2000/svg" viewBox="0 0 382.58 92.43">
  <defs>
    <style>
      .cls-1 {
        fill: #75e545;
      }

      .cls-2 {
        fill: #fff;
      }

      .cls-3 {
        fill: #228760;
      }
    </style>
  </defs>
  <g id="Work">
    <g>
      <g>
        <circle class="cls-1" cx="336.37" cy="46.21" r="46.21"/>
        <path class="cls-2" d="M365.65,51.52c-.78,0-1.45.51-1.68,1.21-.02.09-.04.17-.07.26-3.03,12.39-14.21,21.58-27.54,21.58s-24.48-9.17-27.53-21.53c-.03-.12-.06-.24-.09-.35-.25-.68-.9-1.17-1.67-1.17-.98,0-1.77.79-1.77,1.77,0,.1,0,.2.03.3.02.09.04.17.06.25,3.42,13.93,15.99,24.26,30.97,24.26s27.53-10.32,30.96-24.24c.02-.1.05-.2.07-.3.01-.09.02-.18.02-.27,0-.98-.79-1.77-1.77-1.77ZM314.28,46.48c3.2-.44,5.5-2.28,6.33-5.05,1.55-5.19-2.6-7.88-5.64-9.84-3.01-1.94-4.38-3.05-3.98-4.81.28-1.24,1.4-2.18,2.93-2.45.87-.15,3.88-.36,6.17,3.24l2.68-1.7c-2.22-3.5-5.82-5.29-9.39-4.67-2.77.48-4.93,2.39-5.49,4.87-.93,4.11,2.56,6.36,5.35,8.17,3.22,2.08,5.15,3.5,4.32,6.26-.59,1.98-2.35,2.63-3.73,2.82-3.09.43-6.56-1.06-8.08-3.45h-.01c-.28-.43-.77-.72-1.33-.72-.87,0-1.57.7-1.57,1.57,0,.31.09.6.25.84h-.01c1.92,3.05,5.83,5.01,9.69,5.01.5,0,1-.03,1.5-.1ZM361.13,46.67c3.73-2.8,9.24-10.47,7.66-17.56-1.49-6.67-10.28-9.76-13.24-.85-7.86-6.62-17.16,2.27-10.04,11.08,3.27,4.05,10.74,6.92,15.63,7.33ZM346.68,31.63c1.15-2.74,5.34-3.91,8.47.35l2.87-.9c.07-2.87,1.33-4.67,3.25-5.02,4.83-.88,8.03,8.44-1.14,17.47-12.75-2.17-14.55-9.28-13.45-11.91Z"/>
      </g>
      <g>
        <g>
          <path class="cls-3" d="M122.1,62.76h-7.5V30.22h23.91v6.04h-16.41v26.5ZM121.5,44.86h15.92v3.96c0,1.15-.93,2.09-2.09,2.09h-13.84v-6.04Z"/>
          <path class="cls-3" d="M143.11,62.76V30.22h14.27c2.88,0,5.37.47,7.45,1.42,2.09.95,3.7,2.3,4.83,4.07,1.13,1.77,1.7,3.86,1.7,6.28s-.57,4.55-1.7,6.3c-1.14,1.75-2.75,3.08-4.83,4-2.09.91-4.57,1.37-7.45,1.37h-10.18l3.4-3.25v12.37h-7.5ZM150.61,51.23l-3.4-3.58h9.76c2.27,0,3.99-.5,5.15-1.49,1.17-.99,1.75-2.39,1.75-4.18s-.58-3.18-1.75-4.16c-1.17-.98-2.88-1.46-5.15-1.46h-9.76l3.4-3.58v18.46ZM163.68,62.76l-8.1-11.81h8.01l8.1,11.81h-8.01Z"/>
          <path class="cls-3" d="M184.41,56.71h17.51v6.04h-24.92V30.22h24.85v6.04h-17.44v20.45ZM183.86,43.28h15.9v3.82c0,1.15-.93,2.09-2.09,2.09h-13.81v-5.9Z"/>
          <path class="cls-3" d="M218.94,63.32c-2.61,0-5.12-.35-7.52-1.05-2.41-.7-4.34-1.6-5.8-2.72l2.56-5.67c1.37.99,3.01,1.81,4.94,2.44,1.93.64,3.87.95,5.82.95,1.49,0,2.69-.15,3.61-.46.92-.31,1.59-.72,2.03-1.23.43-.51.65-1.11.65-1.79,0-.87-.34-1.56-1.03-2.07-.68-.51-1.59-.93-2.73-1.26-1.13-.33-2.37-.63-3.7-.93-1.34-.29-2.68-.65-4.03-1.07-1.35-.42-2.59-.98-3.73-1.67-1.13-.7-2.03-1.61-2.7-2.74-.67-1.13-1-2.55-1-4.25,0-1.86.5-3.56,1.49-5.09.99-1.53,2.51-2.76,4.54-3.67,2.03-.91,4.59-1.37,7.66-1.37,2.05,0,4.08.25,6.08.74,2,.5,3.75,1.21,5.24,2.14l-2.38,5.67c-1.46-.84-2.97-1.46-4.52-1.88-1.55-.42-3.04-.63-4.47-.63s-2.69.16-3.59.49c-.9.33-1.56.77-1.98,1.32-.42.56-.63,1.18-.63,1.86,0,.87.34,1.57,1.03,2.09.68.53,1.58.94,2.7,1.23,1.12.29,2.36.59,3.73.88,1.37.3,2.72.66,4.05,1.09,1.34.43,2.56.98,3.68,1.65,1.12.67,2.03,1.57,2.73,2.7.7,1.13,1.05,2.53,1.05,4.21,0,1.83-.51,3.5-1.51,5.02-1.01,1.52-2.54,2.74-4.59,3.67s-4.61,1.39-7.69,1.39Z"/>
          <path class="cls-3" d="M244.64,62.76h-7.5V30.22h7.5v32.54ZM259.44,49.42h-15.4v-6.37h15.4v6.37ZM260.98,30.22h5.37v32.54h-7.45v-30.46c0-1.15.93-2.09,2.09-2.09Z"/>
        </g>
        <g>
          <path class="cls-3" d="M70.73,62.77v-24.9h5.71v24.9h-5.71ZM87.28,62.77v-14.84c0-1.66-.52-2.95-1.56-3.86-1.04-.92-2.32-1.37-3.84-1.37-1.04,0-1.96.21-2.77.62-.81.41-1.46,1.01-1.95,1.79-.48.78-.73,1.72-.73,2.83l-2.23-1.24c0-1.9.41-3.54,1.25-4.93.83-1.38,1.95-2.46,3.37-3.24,1.42-.78,3.01-1.17,4.77-1.17s3.35.38,4.77,1.14c1.42.76,2.54,1.83,3.37,3.22.83,1.38,1.24,3.04,1.24,4.98v16.08h-5.71ZM106.55,62.77c-1.5,0-2.72-1.22-2.72-2.72v-12.11c0-1.66-.52-2.95-1.56-3.86-1.04-.92-2.32-1.37-3.84-1.37-1,0-1.92.21-2.75.62-.83.41-1.49,1.01-1.97,1.79-.48.78-.73,1.72-.73,2.83l-3.22-1.24c.17-1.9.73-3.54,1.66-4.93.93-1.38,2.14-2.46,3.61-3.24s3.09-1.17,4.85-1.17,3.42.38,4.88,1.14c1.45.76,2.61,1.83,3.48,3.22.86,1.38,1.3,3.04,1.3,4.98v16.08h-2.98Z"/>
          <ellipse class="cls-3" cx="34.49" cy="31.29" rx="3.18" ry="3.19"/>
          <path class="cls-3" d="M52.63,63.2c-6.86,0-12.29-5.71-12.29-12.88,0-3.97,1.94-12.99,12.29-12.99,4.22,0,8.02,2.06,9.54,4.55.86,1.42.84,3.02.84,4.81v7.14c0,1.79.03,3.4-.82,4.81-.88,1.46-4.34,4.55-9.57,4.55ZM53.23,57.82c3.2,0,7.54-2.09,7.54-7.55,0-6.13-5.09-7.55-7.54-7.55-5.87,0-7.04,5.03-7.04,7.55,0,6.15,4.58,7.55,7.04,7.55ZM60.77,62.69v-6.67l.98-6.05-.98-6v-6.11h5.69v24.83h-5.69Z"/>
          <path class="cls-3" d="M31.99,37.89v4.57c0,7.61-3.83,13.13-9.87,14.68-.1.03.49-.31,1.18-1.12,1.13-1.44,2.27-4.19.43-8.1-1.26-2.69-3.51-4.16-5.85-5.14-1.97-.83-5.87-2.18-7.07-2.73-1.02-.47-1.84-1.04-2.47-1.71-.62-.68-.94-1.57-.94-2.68,0-1.32.51-2.34,1.53-3.07,1.02-.73,2.43-1.09,4.23-1.09,1.45,0,2.75.29,3.87.86,1.12.57,2.21,1.45,3.25,2.62l2.1-2.1c1.17-1.17,1.03-3.1-.29-4.09-.71-.53-1.5-1.02-2.36-1.44-1.89-.93-4.03-1.4-6.42-1.4-2.22,0-4.23.4-6.03,1.2-1.8.8-3.23,1.95-4.29,3.45-1.06,1.51-1.58,3.33-1.58,5.48,0,1.87.31,3.41.94,4.62.62,1.21,1.45,2.2,2.47,2.96,1.02.76,2.15,1.39,3.38,1.9,1.97.8,5.87,2.11,7.07,2.7,2.02.99,3.69,2.61,3.69,5.06,0,2.26-1.84,4.92-7.09,4.92-4.26,0-6.85-1.88-8.89-4.83l-2.22,2.22c-1.09,1.09-1.02,2.83.07,3.91,2.83,2.8,7.68,3.76,12.56,3.69,6.6-.09,14.25-2.17,17.99-7.25v6.78h5.71v-24.9l-5.12.02Z"/>
        </g>
      </g>
    </g>
  </g>
</svg>