<?xml version="1.0" encoding="UTF-8"?>
<svg id="Layer_2" data-name="Layer 2" xmlns="http://www.w3.org/2000/svg" viewBox="0 0 200.72 133.92">
  <defs>
    <style>
      .cls-1 {
        fill: #75e545;
      }

      .cls-2 {
        fill: #fff;
      }

      .cls-3 {
        fill: #228760;
      }
    </style>
  </defs>
  <g id="Work">
    <g>
      <g>
        <circle class="cls-1" cx="155.45" cy="45.27" r="45.27"/>
        <path class="cls-2" d="M184.14,50.47c-.77,0-1.42.5-1.65,1.19-.02.08-.04.17-.06.25-2.97,12.14-13.92,21.14-26.98,21.14-13.04,0-23.98-8.98-26.97-21.09-.03-.11-.06-.23-.09-.35-.24-.67-.88-1.15-1.63-1.15-.96,0-1.74.78-1.74,1.74,0,.1,0,.2.03.29.02.08.04.17.06.25,3.35,13.64,15.66,23.76,30.34,23.76,14.67,0,26.97-10.11,30.33-23.74.02-.1.05-.2.07-.3.01-.09.02-.17.02-.26,0-.96-.78-1.74-1.74-1.74ZM133.81,45.53c3.13-.43,5.39-2.23,6.2-4.95,1.52-5.08-2.55-7.72-5.52-9.64-2.94-1.9-4.29-2.99-3.9-4.71.27-1.22,1.38-2.14,2.87-2.4.85-.15,3.8-.35,6.04,3.18l2.63-1.66c-2.17-3.43-5.7-5.18-9.2-4.57-2.72.47-4.83,2.35-5.38,4.77-.91,4.03,2.5,6.23,5.25,8,3.15,2.04,5.04,3.42,4.23,6.13-.58,1.94-2.31,2.57-3.65,2.76-3.02.42-6.43-1.04-7.91-3.38h-.01c-.27-.42-.75-.71-1.3-.71-.85,0-1.54.69-1.54,1.54,0,.3.09.59.24.82h-.01c1.89,2.98,5.71,4.91,9.5,4.91.49,0,.98-.03,1.47-.1ZM179.7,45.72c3.66-2.75,9.05-10.25,7.5-17.2-1.46-6.54-10.07-9.56-12.97-.83-7.7-6.48-16.81,2.23-9.84,10.85,3.21,3.97,10.52,6.78,15.31,7.18ZM165.55,30.99c1.13-2.69,5.23-3.83,8.3.34l2.81-.88c.06-2.81,1.3-4.57,3.19-4.91,4.73-.86,7.87,8.27-1.11,17.12-12.49-2.13-14.25-9.09-13.18-11.66Z"/>
      </g>
      <g>
        <g>
          <path class="cls-3" d="M29.54,133.36h-7.44v-32.27h23.71v5.99h-16.27s0,26.28,0,26.28ZM28.95,115.61h15.79v3.93c0,1.14-.93,2.07-2.07,2.07h-13.72v-5.99Z"/>
          <path class="cls-3" d="M50.38,133.36v-32.27h14.15c2.86,0,5.32.47,7.39,1.41,2.07.94,3.67,2.28,4.79,4.03,1.13,1.75,1.69,3.83,1.69,6.22,0,2.43-.56,4.51-1.69,6.25-1.13,1.74-2.72,3.06-4.79,3.97-2.07.91-4.53,1.36-7.39,1.36h-10.09s3.38-3.23,3.38-3.23v12.26h-7.44ZM57.82,121.93l-3.38-3.55h9.68c2.25,0,3.95-.49,5.11-1.48,1.16-.98,1.73-2.37,1.73-4.15,0-1.78-.58-3.16-1.73-4.13-1.16-.97-2.86-1.45-5.11-1.45h-9.68s3.38-3.55,3.38-3.55v18.3ZM70.78,133.36l-8.03-11.71h7.94s8.03,11.71,8.03,11.71h-7.94Z"/>
          <path class="cls-3" d="M91.34,127.37h17.37v5.99h-24.72v-32.27h24.65v5.99h-17.3s0,20.29,0,20.29ZM90.8,114.05h15.77v3.79c0,1.14-.93,2.07-2.07,2.07h-13.7v-5.86Z"/>
          <path class="cls-3" d="M125.59,133.92c-2.59,0-5.08-.35-7.46-1.04-2.39-.69-4.31-1.59-5.75-2.7l2.54-5.63c1.36.98,2.99,1.79,4.9,2.42,1.91.63,3.84.95,5.78.95,1.48,0,2.67-.15,3.58-.46.91-.31,1.58-.71,2.01-1.22.43-.51.65-1.1.65-1.78,0-.86-.34-1.54-1.02-2.05-.68-.51-1.58-.92-2.7-1.24-1.12-.32-2.35-.63-3.67-.92-1.33-.29-2.66-.65-4-1.06-1.34-.42-2.57-.97-3.7-1.66-1.12-.69-2.02-1.6-2.68-2.72-.66-1.12-.99-2.53-.99-4.22,0-1.84.49-3.53,1.48-5.05.99-1.52,2.49-2.74,4.51-3.64,2.02-.91,4.55-1.36,7.6-1.36,2.03,0,4.04.25,6.03.74,1.99.49,3.72,1.2,5.2,2.12l-2.36,5.63c-1.45-.83-2.94-1.45-4.48-1.87-1.54-.42-3.02-.62-4.44-.62s-2.67.16-3.56.48c-.89.32-1.55.76-1.96,1.31-.42.55-.62,1.17-.62,1.84,0,.86.34,1.55,1.02,2.07.68.52,1.57.93,2.68,1.22,1.11.29,2.34.58,3.7.88,1.36.29,2.7.65,4.02,1.08,1.32.43,2.54.98,3.65,1.64,1.11.66,2.01,1.55,2.7,2.67.69,1.12,1.04,2.51,1.04,4.17,0,1.81-.5,3.47-1.5,4.98-1,1.51-2.52,2.72-4.55,3.64-2.03.92-4.57,1.38-7.62,1.38Z"/>
          <path class="cls-3" d="M151.08,133.36h-7.44v-32.27h7.44v32.27ZM165.76,120.13h-15.27v-6.32h15.27v6.32ZM167.28,101.09h5.33v32.27h-7.39v-30.21c0-1.14.93-2.07,2.07-2.07Z"/>
        </g>
        <path class="cls-3" d="M70.15,95.71v-24.69h5.66v24.69h-5.66ZM86.56,95.71v-14.71c0-1.65-.51-2.92-1.54-3.83-1.03-.91-2.3-1.36-3.81-1.36-1.03,0-1.95.21-2.75.62-.81.41-1.45,1-1.93,1.77-.48.77-.72,1.71-.72,2.8l-2.21-1.23c0-1.89.41-3.52,1.24-4.89.82-1.37,1.94-2.44,3.34-3.22,1.41-.77,2.98-1.16,4.73-1.16,1.75,0,3.33.38,4.73,1.13,1.41.75,2.52,1.82,3.34,3.19.82,1.37,1.23,3.02,1.23,4.94v15.95h-5.66ZM105.67,95.71c-1.49,0-2.7-1.21-2.7-2.7v-12.01c0-1.65-.51-2.92-1.54-3.83-1.03-.91-2.3-1.36-3.81-1.36-1,0-1.9.21-2.73.62-.82.41-1.48,1-1.96,1.77-.48.77-.72,1.71-.72,2.8l-3.19-1.23c.17-1.89.72-3.52,1.65-4.89.93-1.37,2.12-2.44,3.58-3.22,1.46-.77,3.06-1.16,4.81-1.16s3.39.38,4.84,1.13c1.44.75,2.59,1.82,3.45,3.19.86,1.37,1.29,3.02,1.29,4.94v15.95h-2.96Z"/>
        <ellipse class="cls-3" cx="34.2" cy="64.48" rx="3.16" ry="3.16"/>
        <path class="cls-3" d="M52.2,96.14c-6.8,0-12.18-5.67-12.18-12.78,0-3.94,1.92-12.88,12.18-12.88,4.18,0,7.96,2.04,9.47,4.52.85,1.4.84,2.99.84,4.77v7.08c0,1.78.03,3.37-.81,4.77s-4.31,4.52-9.49,4.52ZM52.79,90.8c3.17,0,7.48-2.07,7.48-7.49,0-6.08-5.05-7.49-7.48-7.49-5.82,0-6.98,4.98-6.98,7.49,0,6.1,4.54,7.49,6.98,7.49ZM60.27,95.63v-6.62s.98-6,.98-6l-.98-5.95v-6.06h5.64v24.63h-5.64Z"/>
        <path class="cls-3" d="M31.73,71.03v4.53c0,7.54-3.8,13.02-9.79,14.56-.1.03.49-.3,1.17-1.11,1.12-1.43,2.25-4.15.43-8.04-1.25-2.66-3.48-4.12-5.8-5.1-1.95-.83-5.82-2.16-7.01-2.71-1.01-.46-1.83-1.03-2.45-1.7-.62-.67-.93-1.55-.93-2.65,0-1.31.51-2.32,1.52-3.04,1.01-.72,2.41-1.08,4.2-1.08,1.44,0,2.72.28,3.84.85,1.12.57,2.19,1.43,3.22,2.6l2.09-2.09c1.16-1.16,1.03-3.08-.29-4.06-.71-.53-1.49-1.01-2.34-1.43-1.87-.93-3.99-1.39-6.36-1.39-2.2,0-4.19.4-5.98,1.19-1.79.79-3.2,1.93-4.25,3.43-1.05,1.49-1.57,3.31-1.57,5.44,0,1.86.31,3.38.93,4.59.62,1.2,1.43,2.18,2.45,2.94,1.01.76,2.13,1.38,3.35,1.88,1.95.8,5.82,2.1,7.01,2.68,2.01.98,3.66,2.59,3.66,5.02,0,2.24-1.83,4.88-7.03,4.88-4.23,0-6.79-1.86-8.81-4.79l-2.2,2.2c-1.08,1.08-1.01,2.8.07,3.88,2.8,2.77,7.62,3.73,12.46,3.66,6.54-.09,14.13-2.16,17.84-7.19v6.73s5.66,0,5.66,0v-24.69s-5.08.02-5.08.02Z"/>
      </g>
    </g>
  </g>
</svg>